<svg id="Interface_L_out" height="24" viewBox="0 0 100 100" width="24" fill="white" xmlns="http://www.w3.org/2000/svg" data-name="Interface L out"><path d="m12.74 93.75c.69.58 1.98.98 4.18-.42l29.67-18.88c1.82-1.16 5.01-1.16 6.83 0l29.67 18.88c2.29 1.46 3.59.92 4.18.42.69-.58 1.3-1.78.28-4.19l-34.22-81.04c-1.04-2.45-2.53-2.82-3.33-2.82s-2.29.37-3.33 2.82l-34.21 81.04c-1.02 2.41-.41 3.61.28 4.19zm2.48-3.03 34.22-81.03c.23-.55.45-.81.56-.92.12.11.33.37.56.92l34.21 81.04c.02.06.05.12.07.17-.05-.03-.1-.06-.15-.1l-29.67-18.88c-2.82-1.79-7.23-1.79-10.05 0l-29.67 18.88c-.05.03-.11.07-.16.1.02-.05.04-.11.07-.17z"/></svg>